<?xml version="1.0" standalone="no"?>
<!DOCTYPE svg PUBLIC "-//W3C//DTD SVG 20010904//EN"
 "http://www.w3.org/TR/2001/REC-SVG-20010904/DTD/svg10.dtd">
<svg version="1.0" xmlns="http://www.w3.org/2000/svg"
 width="316.000000pt" height="316.000000pt" viewBox="0 0 316.000000 316.000000"
 preserveAspectRatio="xMidYMid meet">
<metadata>
Created by potrace 1.14, written by Peter Selinger 2001-2017
</metadata>
<g transform="translate(0.000000,316.000000) scale(0.100000,-0.100000)"
fill="#000000" stroke="none">
<path d="M0 1580 l0 -1580 1580 0 1580 0 0 1580 0 1580 -1580 0 -1580 0 0
-1580z m2225 904 c8 -4 22 -19 30 -35 48 -92 -100 -204 -164 -123 -62 79 37
195 134 158z m514 -8 c7 -8 19 -53 28 -100 l16 -86 50 -28 c65 -35 77 -54 57
-89 -9 -15 -27 -33 -40 -39 -119 -58 -119 -58 -183 -149 -55 -79 -67 -90 -96
-93 -44 -5 -58 10 -71 76 -25 125 -26 127 -80 151 -91 41 -78 94 35 146 68 31
77 38 125 110 29 42 60 85 71 96 22 22 72 25 88 5z m-815 -108 c8 -13 18 -45
21 -71 7 -43 12 -50 46 -67 46 -24 53 -34 45 -66 -5 -19 -21 -32 -61 -49 -41
-18 -64 -38 -95 -80 -52 -70 -81 -90 -109 -75 -12 6 -24 23 -27 38 -22 96 -24
102 -60 117 -68 28 -59 82 20 114 41 17 61 34 86 69 51 72 72 92 97 92 12 0
29 -10 37 -22z m296 -455 c39 -35 49 -87 25 -134 -12 -25 -221 -198 -761 -629
-409 -327 -756 -603 -771 -612 -31 -20 -84 -23 -113 -8 -27 15 -60 73 -60 107
0 17 10 44 22 62 27 36 1488 1207 1533 1227 49 22 91 17 125 -13z m-622 -140
c40 -44 11 -122 -55 -150 -61 -25 -112 2 -120 64 -6 45 22 87 71 109 40 18 75
10 104 -23z m1129 27 c55 -20 69 -89 28 -139 -32 -37 -82 -55 -118 -42 -30 12
-57 47 -57 76 0 33 38 85 73 100 39 17 37 17 74 5z m-330 -160 c7 -14 15 -47
18 -73 6 -42 11 -51 41 -69 69 -41 62 -87 -21 -126 -39 -19 -59 -38 -95 -90
-76 -113 -122 -109 -142 11 -10 59 -14 67 -40 78 -16 7 -36 23 -45 36 -14 21
-14 25 2 49 9 14 38 35 63 45 35 15 55 32 76 66 51 80 76 104 105 101 15 -2
30 -13 38 -28z m-477 -395 c56 -29 47 -118 -16 -160 -67 -44 -152 0 -141 73 7
40 21 58 62 84 36 22 57 23 95 3z"/>
<path d="M2610 2368 c-65 -93 -73 -99 -175 -145 -56 -25 -54 -51 9 -84 58 -31
60 -36 75 -114 21 -108 20 -105 46 -105 19 0 37 18 86 91 60 87 66 93 138 128
94 44 99 65 29 99 -55 26 -61 35 -77 122 -18 94 -20 100 -44 100 -17 0 -39
-23 -87 -92z m100 -18 c13 -78 37 -116 87 -136 18 -8 33 -17 33 -19 0 -3 -26
-17 -57 -31 -71 -31 -83 -42 -145 -131 -28 -40 -54 -73 -58 -73 -4 0 -13 30
-20 68 -15 83 -29 106 -80 132 -36 18 -46 40 -19 40 6 0 34 11 63 25 45 21 63
38 112 110 33 47 62 85 66 85 3 0 11 -31 18 -70z"/>
<path d="M1847 2328 c-13 -18 -32 -46 -42 -61 -10 -16 -44 -42 -77 -58 -32
-16 -58 -35 -58 -43 0 -7 14 -19 31 -26 39 -17 56 -43 64 -102 4 -26 13 -49
21 -52 12 -5 76 64 102 109 4 8 33 25 65 39 32 15 57 32 57 41 0 8 -18 24 -40
35 -27 14 -42 29 -46 48 -26 116 -36 125 -77 70z m83 -131 l29 -25 -39 -15
c-26 -10 -51 -32 -75 -66 -20 -28 -40 -49 -45 -46 -4 3 -11 21 -15 41 -3 20
-18 47 -32 60 -14 13 -24 25 -22 27 2 1 18 9 34 17 17 9 48 40 70 69 l40 54
13 -46 c8 -27 25 -56 42 -70z"/>
<path d="M2658 1764 c-52 -27 -64 -83 -24 -109 31 -20 70 -11 96 22 26 34 25
68 -2 87 -27 19 -35 19 -70 0z m60 -35 c7 -36 -60 -75 -72 -42 -5 12 1 25 19
41 29 24 48 25 53 1z"/>
<path d="M1819 1201 c-49 -50 -35 -101 28 -101 63 0 107 75 67 114 -24 25 -62
19 -95 -13z m78 -16 c8 -21 -26 -57 -51 -53 -28 4 -31 23 -7 47 25 25 49 27
58 6z"/>
</g>
</svg>
